<svg xmlns="http://www.w3.org/2000/svg" viewBox="0 0 900 180" role="img" aria-labelledby="title desc">
  <title id="title">TabBeacon logo</title>
  <desc id="desc">The TabBeacon mark beside a deterministic original vector-grid wordmark.</desc>
  <g transform="translate(8 8) scale(.64)">
    <path fill="#14213D" d="M40 58c0-11 9-20 20-20h61l17 18h58c11 0 20 9 20 20v105c0 11-9 20-20 20H60c-11 0-20-9-20-20V58Z"/>
    <path fill="#20345A" d="M40 82h176v24H40z"/>
    <path fill="#39D9F2" d="M65 108h69v16H65z"/>
    <path fill="#80C7FF" d="m65 147 27 18-27 18z"/>
    <circle cx="167" cy="139" r="15" fill="#39D9F2"/>
    <circle cx="167" cy="139" r="5" fill="#14213D"/>
    <path fill="none" stroke="#39D9F2" stroke-linecap="round" stroke-width="10" d="M195 111a40 40 0 0 1 0 56"/>
    <path fill="none" stroke="#80C7FF" stroke-linecap="round" stroke-width="8" d="M211 94a65 65 0 0 1 0 90"/>
  </g>
  <defs>
    <path id="glyph-t" d="M0 0h60v12H36v72H24V12H0z"/>
    <path id="glyph-a" fill-rule="evenodd" d="M12 0h36l12 84H48l-6-24H18l-6 24H0zM30 12 21 48h18z"/>
    <path id="glyph-b" fill-rule="evenodd" d="M0 0h36l24 12v24L48 42l12 6v24L36 84H0zM12 12v24h24l12-6V18l-12-6zm0 36v24h24l12-6V54l-12-6z"/>
    <path id="glyph-e" d="M0 0h60v12H12v24h42v12H12v24h48v12H0z"/>
    <path id="glyph-c" d="M12 0h48v12H12v60h48v12H12L0 72V12z"/>
    <path id="glyph-o" fill-rule="evenodd" d="M12 0h36l12 12v60L48 84H12L0 72V12zM12 12v60h36V12z"/>
    <path id="glyph-n" d="M0 84V0h12l36 60V0h12v84H48L12 24v60z"/>
  </defs>
  <g fill="#2A7FA8" transform="translate(200 48)" data-grid-unit="12" data-cap-height="84" data-baseline-y="132" data-glyph-cell-width="60" data-glyph-advance="76" data-inter-glyph-gap="16" aria-label="TABBEACON">
    <use href="#glyph-t" x="0" data-glyph="T" data-cell-start="0" data-cell-end="60"/>
    <use href="#glyph-a" x="76" data-glyph="A" data-cell-start="76" data-cell-end="136"/>
    <use href="#glyph-b" x="152" data-glyph="B" data-cell-start="152" data-cell-end="212"/>
    <use href="#glyph-b" x="228" data-glyph="B" data-cell-start="228" data-cell-end="288"/>
    <use href="#glyph-e" x="304" data-glyph="E" data-cell-start="304" data-cell-end="364"/>
    <use href="#glyph-a" x="380" data-glyph="A" data-cell-start="380" data-cell-end="440"/>
    <use href="#glyph-c" x="456" data-glyph="C" data-cell-start="456" data-cell-end="516"/>
    <use href="#glyph-o" x="532" data-glyph="O" data-cell-start="532" data-cell-end="592"/>
    <use href="#glyph-n" x="608" data-glyph="N" data-cell-start="608" data-cell-end="668"/>
  </g>
</svg>
